# File created by Blade
# Date/Time:  Tue Apr 07 21:36:59 2015
# Frame Rate: 120.000 fps
#------------------------------------------------------
:FULLY-SPECIFIED
:DEGREES
405
root 7.416136 32.653033 9.394130 210.338614 -92.264956 -183.166532
Spine -0.098224 -6.952089 -0.485819
Head -14.597828 -2.495827 4.969609
LeftShoulder 3.282755 22.344407 28.782115
LeftArm 89.388806 -1.127889 -66.112106
LeftForeArm -20.916934 -0.000000 24.613748
LeftHand 13.302237 -0.000000 -5.685823
LeftHandThumb1 -26.253704 0.000000 33.147579
RightShoulder 7.986048 18.026553 -23.588344
RightArm 43.692136 -11.987653 77.463528
RightForeArm 15.007997 0.000000 31.912208
RightHand 7.468613 -0.000000 9.059142
RightHandThumb1 -24.326973 -0.000000 -32.862282
LeftUpLeg -38.519714 -4.956772 4.296253
LeftLeg 9.285503 -0.000000 -0.000000
LeftFoot -5.114314 9.360693 -20.544957
LeftToeBase -3.714647 -0.000000 0.000000
RightUpLeg -38.301551 4.984133 -2.494993
RightLeg 5.269334 -0.000000 -0.000000
RightFoot -3.128615 -10.728323 10.407330
RightToeBase -8.911187 -0.000000 0.000000
406
root 7.439287 32.658577 9.414791 207.540974 -92.139014 -180.238669
Spine -0.164751 -6.874506 -0.586918
Head -14.672322 -2.507703 4.829652
LeftShoulder 3.193206 22.223294 29.023305
LeftArm 90.152728 -1.934125 -66.923787
LeftForeArm -21.190382 -0.000000 25.344301
LeftHand 13.544978 -0.000000 -6.059609
LeftHandThumb1 -26.253704 0.000000 33.147579
RightShoulder 7.956882 18.590435 -23.878038
RightArm 44.043685 -11.001191 77.567886
RightForeArm 17.428374 -0.000000 32.834156
RightHand 7.316006 -0.000000 9.483625
RightHandThumb1 -24.326973 -0.000000 -32.862282
LeftUpLeg -38.436122 -5.044029 4.190164
LeftLeg 8.771990 -0.000000 -0.000000
LeftFoot -4.918204 9.629177 -20.393097
LeftToeBase -3.573800 -0.000000 0.000000
RightUpLeg -38.441193 4.867665 -2.635138
RightLeg 5.227125 -0.000000 -0.000000
RightFoot -3.299620 -10.490276 10.727927
RightToeBase -9.473030 -0.000000 0.000000
407
root 7.465626 32.664057 9.425641 205.721184 -92.016526 -178.239945
Spine -0.257452 -6.790824 -0.668570
Head -14.788011 -2.521165 4.744956
LeftShoulder 3.082220 22.070620 29.286098
LeftArm 90.792457 -2.731475 -67.597931
LeftForeArm -21.642283 -0.000000 26.304102
LeftHand 13.436533 -0.000000 -6.318552
LeftHandThumb1 -26.253704 0.000000 33.147579
RightShoulder 7.931433 19.123801 -24.144930
RightArm 44.426473 -10.003170 77.714596
RightForeArm 19.846399 -0.000000 33.771089
RightHand 7.204725 -0.000000 9.837931
RightHandThumb1 -24.326973 -0.000000 -32.862282
LeftUpLeg -38.438452 -5.032566 4.098166
LeftLeg 8.330430 -0.000000 -0.000000
LeftFoot -4.689177 9.808661 -20.197472
LeftToeBase -3.477172 -0.000000 0.000000
RightUpLeg -38.621594 4.892373 -2.799545
RightLeg 5.135816 -0.000000 -0.000000
RightFoot -3.538021 -10.459717 11.229283
RightToeBase -9.486987 -0.000000 0.000000
408
root 7.494405 32.669169 9.435292 203.012809 -91.913637 -175.348597
Spine -0.318715 -6.730740 -0.769883
Head -14.962479 -2.515024 4.675732
LeftShoulder 2.948467 21.937578 29.517842
LeftArm 91.426283 -3.557253 -68.200156
LeftForeArm -21.998049 -0.000000 27.374429
LeftHand 13.392411 -0.000000 -6.410956
LeftHandThumb1 -26.253704 0.000000 33.147579
RightShoulder 7.887413 19.681565 -24.426343
RightArm 44.760782 -8.922713 78.012334
RightForeArm 21.815945 -0.000000 34.740215
RightHand 7.114618 -0.000000 10.275886
RightHandThumb1 -24.326973 -0.000000 -32.862282
LeftUpLeg -38.471884 -5.068646 4.018289
LeftLeg 7.928285 -0.000000 -0.000000
LeftFoot -4.419821 9.981321 -19.969742
LeftToeBase -3.385014 -0.000000 0.000000
RightUpLeg -38.823583 4.802578 -2.910706
RightLeg 5.083779 -0.000000 -0.000000
RightFoot -3.702786 -10.367424 11.544001
RightToeBase -9.594538 -0.000000 0.000000
409
root 7.522602 32.673841 9.444147 199.799389 -91.832806 -171.927728
Spine -0.391923 -6.768061 -0.867729
Head -15.149012 -2.431259 4.607912
LeftShoulder 2.757348 21.794200 29.727207
LeftArm 91.957614 -4.367431 -68.794692
LeftForeArm -22.450411 0.000000 28.556674
LeftHand 13.157923 -0.000000 -6.545737
LeftHandThumb1 -26.253704 0.000000 33.147579
RightShoulder 7.939763 20.243452 -24.679200
RightArm 45.082364 -7.874554 78.303044
RightForeArm 23.913741 -0.000000 35.807292
RightHand 7.060957 -0.000000 10.412826
RightHandThumb1 -24.326973 -0.000000 -32.862282
LeftUpLeg -38.521986 -5.114869 3.939922
LeftLeg 7.502764 -0.000000 -0.000000
LeftFoot -4.131499 10.161007 -19.781584
LeftToeBase -3.224310 -0.000000 0.000000
RightUpLeg -39.042653 4.688313 -3.016742
RightLeg 5.029002 -0.000000 -0.000000
RightFoot -3.859632 -10.290104 11.830047
RightToeBase -10.041747 -0.000000 0.000000
